<?xml version="1.0" encoding="UTF-8" standalone="no"?>
<!DOCTYPE svg PUBLIC "-//W3C//DTD SVG 1.1//EN" "http://www.w3.org/Graphics/SVG/1.1/DTD/svg11.dtd">
<svg version="1.1" xmlns="http://www.w3.org/2000/svg" xmlns:xlink="http://www.w3.org/1999/xlink" preserveAspectRatio="xMidYMid meet" viewBox="0 0 640 640" width="640" height="640"><defs><path d="M576.23 72.31C576.23 79.16 570.67 84.73 563.81 84.73C556.96 84.73 551.4 79.16 551.4 72.31C551.4 65.46 556.96 59.9 563.81 59.9C570.67 59.9 576.23 65.46 576.23 72.31Z" id="d493hFjuhS"></path><path d="M88.66 72.31C88.66 79.16 83.1 84.73 76.25 84.73C69.4 84.73 63.84 79.16 63.84 72.31C63.84 65.46 69.4 59.9 76.25 59.9C83.1 59.9 88.66 65.46 88.66 72.31Z" id="c1DuImSIWO"></path><path d="M99.01 103.35C99.01 115.91 88.81 126.11 76.25 126.11C63.69 126.11 53.49 115.91 53.49 103.35C53.49 90.79 63.69 80.59 76.25 80.59C88.81 80.59 99.01 90.79 99.01 103.35Z" id="g25sUX3nbW"></path><path d="M586.57 104.83C586.57 117.39 576.38 127.59 563.81 127.59C551.25 127.59 541.06 117.39 541.06 104.83C541.06 92.27 551.25 82.07 563.81 82.07C576.38 82.07 586.57 92.27 586.57 104.83Z" id="c2ppYox9qy"></path><path d="M91.49 258.2L91.49 486.74L61.01 486.74L61.01 258.2L91.49 258.2Z" id="bcpgRkNTK"></path><path d="M579.05 258.2L579.05 486.74L548.58 486.74L548.58 258.2L579.05 258.2Z" id="b5kt7L05nq"></path><path d="M625 105L625 260L17.7 260L17.7 105L625 105Z" id="b2pB21Yojd"></path><path d="M87.5 105L106.25 105L17.5 193.75L17.5 175L87.5 105Z" id="a12HT6j0iG"></path><path d="M17.5 118.75L31.25 105L50 105L17.5 137.5L17.5 128.4L17.5 118.75Z" id="b1yLUF9mll"></path><path d="M640 486.74L640 494.36L0.07 494.36L0.07 486.74L640 486.74Z" id="ajXLOM9V6"></path><path d="M40 340L600 340L600 380L40 380L40 340Z" id="b32K5qzTqL"></path><path d="M40 357.22L56.25 340L75 340L40 380L40 365.84L40 357.22Z" id="fAOvrjp8V"></path><path d="M69.67 380L105 340L125 340L90.33 380L80.33 380L69.67 380Z" id="g6SjmpX0G7"></path><path d="M120.97 380L156.3 340L176.3 340L141.63 380L131.63 380L120.97 380Z" id="b3PLVrEUlT"></path><path d="M170 380L205.33 340L225.33 340L190.66 380L180.66 380L170 380Z" id="hprTOk7lW"></path><path d="M220 380L255.33 340L275.33 340L240.66 380L230.66 380L220 380Z" id="dodyA29eB"></path><path d="M270 380L305.33 340L325.33 340L290.66 380L280.66 380L270 380Z" id="cAStQRpYF"></path><path d="M321.3 380L356.64 340L376.64 340L341.96 380L331.96 380L321.3 380Z" id="c2qyv5dqD"></path><path d="M370.33 380L405.67 340L425.67 340L390.99 380L380.99 380L370.33 380Z" id="cEtkihi6n"></path><path d="M420.33 380L455.67 340L475.67 340L440.99 380L430.99 380L420.33 380Z" id="eOKpv4kBH"></path><path d="M470 380L505.33 340L525.33 340L490.66 380L480.66 380L470 380Z" id="bBe2xMueC"></path><path d="M519.03 380L554.36 340L574.36 340L539.69 380L529.69 380L519.03 380Z" id="fA1JcxbrW"></path><path d="M569.03 380L599.3 345.73L600 344.93L600 368.03L599.45 368.74L589.69 380L579.69 380L569.03 380Z" id="cHFKF59qz"></path><path d="M143.75 105L162.5 105L17.5 250L17.5 231.25L143.75 105Z" id="g7htNCdpE"></path><path d="M200 105L218.75 105L62.5 260.1L43.75 260L200 105Z" id="cfFJPqiXn"></path><path d="M256.25 105L275 105L118.75 260.1L100 260L256.25 105Z" id="b3TrODoogu"></path><path d="M256.25 104.9L275 104.9L130 249.9L130 231.15L256.25 104.9Z" id="e4ll0IUHJz"></path><path d="M312.5 104.9L331.25 104.9L175 260L156.25 259.9L312.5 104.9Z" id="a4hyDd3xB"></path><path d="M368.75 104.9L387.5 104.9L231.25 260L212.5 259.9L368.75 104.9Z" id="dfwJgJkHE"></path><path d="M368.75 104.9L387.5 104.9L242.5 249.9L242.5 231.15L368.75 104.9Z" id="fahNZ65K"></path><path d="M425 104.9L443.75 104.9L287.5 260L268.75 259.9L425 104.9Z" id="a3uxZ6iHj"></path><path d="M481.25 104.9L500 104.9L343.75 260L325 259.9L481.25 104.9Z" id="g2CIGo0jNa"></path><path d="M625.21 131.25L625.33 150L512.5 260L493.75 260L625.21 131.25Z" id="d54MtCrxe"></path><path d="M536.32 104.9L555.07 104.9L398.82 260L380.07 259.9L536.32 104.9Z" id="g1PXRAEE4I"></path><path d="M592.57 104.9L611.32 104.9L455.07 260L436.32 259.9L592.57 104.9Z" id="aCeTntL8x"></path><path d="M625 181.25L625 200L562.5 260L543.75 260L625 181.25Z" id="c6C3XyEbDI"></path><path d="M594.03 260.07L608.05 243.55L625 225L625 243.75L618.75 251.5L612.5 260L604.69 260.07L594.03 260.07Z" id="a2H4byUTLa"></path></defs><g><g><g><use xlink:href="#d493hFjuhS" opacity="1" fill-opacity="0" stroke="#a19aa1" stroke-width="7" stroke-opacity="1"></use></g></g><g><g><use xlink:href="#c1DuImSIWO" opacity="1" fill-opacity="0" stroke="#a19aa1" stroke-width="7" stroke-opacity="1"></use></g></g><g><use xlink:href="#g25sUX3nbW" opacity="1" fill="#dadada" fill-opacity="1"></use></g><g><use xlink:href="#c2ppYox9qy" opacity="1" fill="#dadada" fill-opacity="1"></use></g><g><use xlink:href="#bcpgRkNTK" opacity="1" fill="#4d4d4d" fill-opacity="0.81"></use><g><use xlink:href="#bcpgRkNTK" opacity="1" fill-opacity="0" stroke="#000000" stroke-width="1" stroke-opacity="0"></use></g></g><g><use xlink:href="#b5kt7L05nq" opacity="1" fill="#4d4d4d" fill-opacity="0.81"></use><g><use xlink:href="#b5kt7L05nq" opacity="1" fill-opacity="0" stroke="#000000" stroke-width="1" stroke-opacity="0"></use></g></g><g><use xlink:href="#b2pB21Yojd" opacity="1" fill="#d40000" fill-opacity="1"></use><g><use xlink:href="#b2pB21Yojd" opacity="1" fill-opacity="0" stroke="#000000" stroke-width="1" stroke-opacity="0"></use></g><g><filter id="shadow8143273" x="-8.3" y="79" width="660.3" height="215" filterUnits="userSpaceOnUse" primitiveUnits="userSpaceOnUse"><feFlood></feFlood><feComposite in2="SourceAlpha" operator="out"></feComposite><feGaussianBlur stdDeviation="2.24"></feGaussianBlur><feOffset dx="1" dy="8" result="afterOffset"></feOffset><feFlood flood-color="#fffcfc" flood-opacity="0.5"></feFlood><feComposite in2="afterOffset" operator="in"></feComposite><feMorphology operator="dilate" radius="3"></feMorphology><feComposite in2="SourceAlpha" operator="in"></feComposite></filter><path d="M625 105L625 260L17.7 260L17.7 105L625 105Z" id="cgZ1mYAXU" fill="white" fill-opacity="1" filter="url(#shadow8143273)"></path></g></g><g><use xlink:href="#a12HT6j0iG" opacity="1" fill="#f3eff3" fill-opacity="1"></use><g><use xlink:href="#a12HT6j0iG" opacity="1" fill-opacity="0" stroke="#000000" stroke-width="1" stroke-opacity="0"></use></g><g><filter id="shadow12733684" x="-8.5" y="79" width="141.75" height="148.75" filterUnits="userSpaceOnUse" primitiveUnits="userSpaceOnUse"><feFlood></feFlood><feComposite in2="SourceAlpha" operator="out"></feComposite><feGaussianBlur stdDeviation="2.24"></feGaussianBlur><feOffset dx="1" dy="8" result="afterOffset"></feOffset><feFlood flood-color="#fffcfc" flood-opacity="0.5"></feFlood><feComposite in2="afterOffset" operator="in"></feComposite><feMorphology operator="dilate" radius="3"></feMorphology><feComposite in2="SourceAlpha" operator="in"></feComposite></filter><path d="M87.5 105L106.25 105L17.5 193.75L17.5 175L87.5 105Z" id="b1ZxCm4nu" fill="white" fill-opacity="1" filter="url(#shadow12733684)"></path></g></g><g><use xlink:href="#b1yLUF9mll" opacity="1" fill="#f3eff3" fill-opacity="1"></use><g><use xlink:href="#b1yLUF9mll" opacity="1" fill-opacity="0" stroke="#000000" stroke-width="1" stroke-opacity="0"></use></g><g><filter id="shadow14331105" x="-8.5" y="79" width="85.5" height="92.5" filterUnits="userSpaceOnUse" primitiveUnits="userSpaceOnUse"><feFlood></feFlood><feComposite in2="SourceAlpha" operator="out"></feComposite><feGaussianBlur stdDeviation="2.24"></feGaussianBlur><feOffset dx="1" dy="8" result="afterOffset"></feOffset><feFlood flood-color="#fffcfc" flood-opacity="0.5"></feFlood><feComposite in2="afterOffset" operator="in"></feComposite><feMorphology operator="dilate" radius="3"></feMorphology><feComposite in2="SourceAlpha" operator="in"></feComposite></filter><path d="M17.5 118.75L31.25 105L50 105L17.5 137.5L17.5 128.4L17.5 118.75Z" id="bjplYItJD" fill="white" fill-opacity="1" filter="url(#shadow14331105)"></path></g></g><g><use xlink:href="#ajXLOM9V6" opacity="1" fill="#383737" fill-opacity="0.81"></use><g><use xlink:href="#ajXLOM9V6" opacity="1" fill-opacity="0" stroke="#000000" stroke-width="1" stroke-opacity="0"></use></g></g><g><use xlink:href="#b32K5qzTqL" opacity="1" fill="#d40000" fill-opacity="1"></use><g><filter id="shadow4893641" x="23" y="323" width="595" height="77" filterUnits="userSpaceOnUse" primitiveUnits="userSpaceOnUse"><feFlood></feFlood><feComposite in2="SourceAlpha" operator="out"></feComposite><feGaussianBlur stdDeviation="1.73"></feGaussianBlur><feOffset dx="1" dy="3" result="afterOffset"></feOffset><feFlood flood-color="#ffffff" flood-opacity="0.8"></feFlood><feComposite in2="afterOffset" operator="in"></feComposite><feMorphology operator="dilate" radius="3"></feMorphology><feComposite in2="SourceAlpha" operator="in"></feComposite></filter><path d="M40 340L600 340L600 380L40 380L40 340Z" id="c2i5aifdnl" fill="white" fill-opacity="1" filter="url(#shadow4893641)"></path></g></g><g><use xlink:href="#fAOvrjp8V" opacity="1" fill="#f3eff3" fill-opacity="1"></use><g><use xlink:href="#fAOvrjp8V" opacity="1" fill-opacity="0" stroke="#000000" stroke-width="1" stroke-opacity="0"></use></g><g><filter id="shadow998533" x="14" y="314" width="88" height="100" filterUnits="userSpaceOnUse" primitiveUnits="userSpaceOnUse"><feFlood></feFlood><feComposite in2="SourceAlpha" operator="out"></feComposite><feGaussianBlur stdDeviation="2.24"></feGaussianBlur><feOffset dx="1" dy="8" result="afterOffset"></feOffset><feFlood flood-color="#fffcfc" flood-opacity="0.5"></feFlood><feComposite in2="afterOffset" operator="in"></feComposite><feMorphology operator="dilate" radius="3"></feMorphology><feComposite in2="SourceAlpha" operator="in"></feComposite></filter><path d="M40 357.22L56.25 340L75 340L40 380L40 365.84L40 357.22Z" id="aO5LfVHwZ" fill="white" fill-opacity="1" filter="url(#shadow998533)"></path></g></g><g><use xlink:href="#g6SjmpX0G7" opacity="1" fill="#f3eff3" fill-opacity="1"></use><g><use xlink:href="#g6SjmpX0G7" opacity="1" fill-opacity="0" stroke="#000000" stroke-width="1" stroke-opacity="0"></use></g><g><filter id="shadow9415875" x="43.67" y="314" width="108.33" height="100" filterUnits="userSpaceOnUse" primitiveUnits="userSpaceOnUse"><feFlood></feFlood><feComposite in2="SourceAlpha" operator="out"></feComposite><feGaussianBlur stdDeviation="2.24"></feGaussianBlur><feOffset dx="1" dy="8" result="afterOffset"></feOffset><feFlood flood-color="#fffcfc" flood-opacity="0.5"></feFlood><feComposite in2="afterOffset" operator="in"></feComposite><feMorphology operator="dilate" radius="3"></feMorphology><feComposite in2="SourceAlpha" operator="in"></feComposite></filter><path d="M69.67 380L105 340L125 340L90.33 380L80.33 380L69.67 380Z" id="c1ZYfPQQMt" fill="white" fill-opacity="1" filter="url(#shadow9415875)"></path></g></g><g><use xlink:href="#b3PLVrEUlT" opacity="1" fill="#f3eff3" fill-opacity="1"></use><g><use xlink:href="#b3PLVrEUlT" opacity="1" fill-opacity="0" stroke="#000000" stroke-width="1" stroke-opacity="0"></use></g><g><filter id="shadow350789" x="94.97" y="314" width="108.33" height="100" filterUnits="userSpaceOnUse" primitiveUnits="userSpaceOnUse"><feFlood></feFlood><feComposite in2="SourceAlpha" operator="out"></feComposite><feGaussianBlur stdDeviation="2.24"></feGaussianBlur><feOffset dx="1" dy="8" result="afterOffset"></feOffset><feFlood flood-color="#fffcfc" flood-opacity="0.5"></feFlood><feComposite in2="afterOffset" operator="in"></feComposite><feMorphology operator="dilate" radius="3"></feMorphology><feComposite in2="SourceAlpha" operator="in"></feComposite></filter><path d="M120.97 380L156.3 340L176.3 340L141.63 380L131.63 380L120.97 380Z" id="ea2Wdn87t" fill="white" fill-opacity="1" filter="url(#shadow350789)"></path></g></g><g><use xlink:href="#hprTOk7lW" opacity="1" fill="#f3eff3" fill-opacity="1"></use><g><use xlink:href="#hprTOk7lW" opacity="1" fill-opacity="0" stroke="#000000" stroke-width="1" stroke-opacity="0"></use></g><g><filter id="shadow9266924" x="144" y="314" width="108.33" height="100" filterUnits="userSpaceOnUse" primitiveUnits="userSpaceOnUse"><feFlood></feFlood><feComposite in2="SourceAlpha" operator="out"></feComposite><feGaussianBlur stdDeviation="2.24"></feGaussianBlur><feOffset dx="1" dy="8" result="afterOffset"></feOffset><feFlood flood-color="#fffcfc" flood-opacity="0.5"></feFlood><feComposite in2="afterOffset" operator="in"></feComposite><feMorphology operator="dilate" radius="3"></feMorphology><feComposite in2="SourceAlpha" operator="in"></feComposite></filter><path d="M170 380L205.33 340L225.33 340L190.66 380L180.66 380L170 380Z" id="b5vuR4z9rl" fill="white" fill-opacity="1" filter="url(#shadow9266924)"></path></g></g><g><use xlink:href="#dodyA29eB" opacity="1" fill="#f3eff3" fill-opacity="1"></use><g><use xlink:href="#dodyA29eB" opacity="1" fill-opacity="0" stroke="#000000" stroke-width="1" stroke-opacity="0"></use></g><g><filter id="shadow12642106" x="194" y="314" width="108.33" height="100" filterUnits="userSpaceOnUse" primitiveUnits="userSpaceOnUse"><feFlood></feFlood><feComposite in2="SourceAlpha" operator="out"></feComposite><feGaussianBlur stdDeviation="2.24"></feGaussianBlur><feOffset dx="1" dy="8" result="afterOffset"></feOffset><feFlood flood-color="#fffcfc" flood-opacity="0.5"></feFlood><feComposite in2="afterOffset" operator="in"></feComposite><feMorphology operator="dilate" radius="3"></feMorphology><feComposite in2="SourceAlpha" operator="in"></feComposite></filter><path d="M220 380L255.33 340L275.33 340L240.66 380L230.66 380L220 380Z" id="bLetPUmcH" fill="white" fill-opacity="1" filter="url(#shadow12642106)"></path></g></g><g><use xlink:href="#cAStQRpYF" opacity="1" fill="#f3eff3" fill-opacity="1"></use><g><use xlink:href="#cAStQRpYF" opacity="1" fill-opacity="0" stroke="#000000" stroke-width="1" stroke-opacity="0"></use></g><g><filter id="shadow12187119" x="244" y="314" width="108.33" height="100" filterUnits="userSpaceOnUse" primitiveUnits="userSpaceOnUse"><feFlood></feFlood><feComposite in2="SourceAlpha" operator="out"></feComposite><feGaussianBlur stdDeviation="2.24"></feGaussianBlur><feOffset dx="1" dy="8" result="afterOffset"></feOffset><feFlood flood-color="#fffcfc" flood-opacity="0.5"></feFlood><feComposite in2="afterOffset" operator="in"></feComposite><feMorphology operator="dilate" radius="3"></feMorphology><feComposite in2="SourceAlpha" operator="in"></feComposite></filter><path d="M270 380L305.33 340L325.33 340L290.66 380L280.66 380L270 380Z" id="dYBimedcD" fill="white" fill-opacity="1" filter="url(#shadow12187119)"></path></g></g><g><use xlink:href="#c2qyv5dqD" opacity="1" fill="#f3eff3" fill-opacity="1"></use><g><use xlink:href="#c2qyv5dqD" opacity="1" fill-opacity="0" stroke="#000000" stroke-width="1" stroke-opacity="0"></use></g><g><filter id="shadow11248929" x="295.3" y="314" width="108.33" height="100" filterUnits="userSpaceOnUse" primitiveUnits="userSpaceOnUse"><feFlood></feFlood><feComposite in2="SourceAlpha" operator="out"></feComposite><feGaussianBlur stdDeviation="2.24"></feGaussianBlur><feOffset dx="1" dy="8" result="afterOffset"></feOffset><feFlood flood-color="#fffcfc" flood-opacity="0.5"></feFlood><feComposite in2="afterOffset" operator="in"></feComposite><feMorphology operator="dilate" radius="3"></feMorphology><feComposite in2="SourceAlpha" operator="in"></feComposite></filter><path d="M321.3 380L356.64 340L376.64 340L341.96 380L331.96 380L321.3 380Z" id="cgGfrhwta" fill="white" fill-opacity="1" filter="url(#shadow11248929)"></path></g></g><g><use xlink:href="#cEtkihi6n" opacity="1" fill="#f3eff3" fill-opacity="1"></use><g><use xlink:href="#cEtkihi6n" opacity="1" fill-opacity="0" stroke="#000000" stroke-width="1" stroke-opacity="0"></use></g><g><filter id="shadow3082265" x="344.33" y="314" width="108.33" height="100" filterUnits="userSpaceOnUse" primitiveUnits="userSpaceOnUse"><feFlood></feFlood><feComposite in2="SourceAlpha" operator="out"></feComposite><feGaussianBlur stdDeviation="2.24"></feGaussianBlur><feOffset dx="1" dy="8" result="afterOffset"></feOffset><feFlood flood-color="#fffcfc" flood-opacity="0.5"></feFlood><feComposite in2="afterOffset" operator="in"></feComposite><feMorphology operator="dilate" radius="3"></feMorphology><feComposite in2="SourceAlpha" operator="in"></feComposite></filter><path d="M370.33 380L405.67 340L425.67 340L390.99 380L380.99 380L370.33 380Z" id="df2AHptOk" fill="white" fill-opacity="1" filter="url(#shadow3082265)"></path></g></g><g><use xlink:href="#eOKpv4kBH" opacity="1" fill="#f3eff3" fill-opacity="1"></use><g><use xlink:href="#eOKpv4kBH" opacity="1" fill-opacity="0" stroke="#000000" stroke-width="1" stroke-opacity="0"></use></g><g><filter id="shadow7112884" x="394.33" y="314" width="108.33" height="100" filterUnits="userSpaceOnUse" primitiveUnits="userSpaceOnUse"><feFlood></feFlood><feComposite in2="SourceAlpha" operator="out"></feComposite><feGaussianBlur stdDeviation="2.24"></feGaussianBlur><feOffset dx="1" dy="8" result="afterOffset"></feOffset><feFlood flood-color="#fffcfc" flood-opacity="0.5"></feFlood><feComposite in2="afterOffset" operator="in"></feComposite><feMorphology operator="dilate" radius="3"></feMorphology><feComposite in2="SourceAlpha" operator="in"></feComposite></filter><path d="M420.33 380L455.67 340L475.67 340L440.99 380L430.99 380L420.33 380Z" id="a1PmDdDHl" fill="white" fill-opacity="1" filter="url(#shadow7112884)"></path></g></g><g><use xlink:href="#bBe2xMueC" opacity="1" fill="#f3eff3" fill-opacity="1"></use><g><use xlink:href="#bBe2xMueC" opacity="1" fill-opacity="0" stroke="#000000" stroke-width="1" stroke-opacity="0"></use></g><g><filter id="shadow2765723" x="444" y="314" width="108.33" height="100" filterUnits="userSpaceOnUse" primitiveUnits="userSpaceOnUse"><feFlood></feFlood><feComposite in2="SourceAlpha" operator="out"></feComposite><feGaussianBlur stdDeviation="2.24"></feGaussianBlur><feOffset dx="1" dy="8" result="afterOffset"></feOffset><feFlood flood-color="#fffcfc" flood-opacity="0.5"></feFlood><feComposite in2="afterOffset" operator="in"></feComposite><feMorphology operator="dilate" radius="3"></feMorphology><feComposite in2="SourceAlpha" operator="in"></feComposite></filter><path d="M470 380L505.33 340L525.33 340L490.66 380L480.66 380L470 380Z" id="a9cLenziJj" fill="white" fill-opacity="1" filter="url(#shadow2765723)"></path></g></g><g><use xlink:href="#fA1JcxbrW" opacity="1" fill="#f3eff3" fill-opacity="1"></use><g><use xlink:href="#fA1JcxbrW" opacity="1" fill-opacity="0" stroke="#000000" stroke-width="1" stroke-opacity="0"></use></g><g><filter id="shadow12796964" x="493.03" y="314" width="108.33" height="100" filterUnits="userSpaceOnUse" primitiveUnits="userSpaceOnUse"><feFlood></feFlood><feComposite in2="SourceAlpha" operator="out"></feComposite><feGaussianBlur stdDeviation="2.24"></feGaussianBlur><feOffset dx="1" dy="8" result="afterOffset"></feOffset><feFlood flood-color="#fffcfc" flood-opacity="0.5"></feFlood><feComposite in2="afterOffset" operator="in"></feComposite><feMorphology operator="dilate" radius="3"></feMorphology><feComposite in2="SourceAlpha" operator="in"></feComposite></filter><path d="M519.03 380L554.36 340L574.36 340L539.69 380L529.69 380L519.03 380Z" id="d2k6l3GqWd" fill="white" fill-opacity="1" filter="url(#shadow12796964)"></path></g></g><g><use xlink:href="#cHFKF59qz" opacity="1" fill="#f3eff3" fill-opacity="1"></use><g><use xlink:href="#cHFKF59qz" opacity="1" fill-opacity="0" stroke="#000000" stroke-width="1" stroke-opacity="0"></use></g><g><filter id="shadow8901619" x="543.03" y="318.93" width="83.97" height="95.07" filterUnits="userSpaceOnUse" primitiveUnits="userSpaceOnUse"><feFlood></feFlood><feComposite in2="SourceAlpha" operator="out"></feComposite><feGaussianBlur stdDeviation="2.24"></feGaussianBlur><feOffset dx="1" dy="8" result="afterOffset"></feOffset><feFlood flood-color="#fffcfc" flood-opacity="0.5"></feFlood><feComposite in2="afterOffset" operator="in"></feComposite><feMorphology operator="dilate" radius="3"></feMorphology><feComposite in2="SourceAlpha" operator="in"></feComposite></filter><path d="M569.03 380L599.3 345.73L600 344.93L600 368.03L599.45 368.74L589.69 380L579.69 380L569.03 380Z" id="dK8fn1D4I" fill="white" fill-opacity="1" filter="url(#shadow8901619)"></path></g></g><g><use xlink:href="#g7htNCdpE" opacity="1" fill="#f3eff3" fill-opacity="1"></use><g><use xlink:href="#g7htNCdpE" opacity="1" fill-opacity="0" stroke="#000000" stroke-width="1" stroke-opacity="0"></use></g><g><filter id="shadow6107271" x="-8.5" y="79" width="198" height="205" filterUnits="userSpaceOnUse" primitiveUnits="userSpaceOnUse"><feFlood></feFlood><feComposite in2="SourceAlpha" operator="out"></feComposite><feGaussianBlur stdDeviation="2.24"></feGaussianBlur><feOffset dx="1" dy="8" result="afterOffset"></feOffset><feFlood flood-color="#fffcfc" flood-opacity="0.5"></feFlood><feComposite in2="afterOffset" operator="in"></feComposite><feMorphology operator="dilate" radius="3"></feMorphology><feComposite in2="SourceAlpha" operator="in"></feComposite></filter><path d="M143.75 105L162.5 105L17.5 250L17.5 231.25L143.75 105Z" id="aj2w1ICR4" fill="white" fill-opacity="1" filter="url(#shadow6107271)"></path></g></g><g><use xlink:href="#cfFJPqiXn" opacity="1" fill="#f3eff3" fill-opacity="1"></use><g><use xlink:href="#cfFJPqiXn" opacity="1" fill-opacity="0" stroke="#000000" stroke-width="1" stroke-opacity="0"></use></g><g><filter id="shadow2457759" x="17.75" y="79" width="228" height="215.1" filterUnits="userSpaceOnUse" primitiveUnits="userSpaceOnUse"><feFlood></feFlood><feComposite in2="SourceAlpha" operator="out"></feComposite><feGaussianBlur stdDeviation="2.24"></feGaussianBlur><feOffset dx="1" dy="8" result="afterOffset"></feOffset><feFlood flood-color="#fffcfc" flood-opacity="0.5"></feFlood><feComposite in2="afterOffset" operator="in"></feComposite><feMorphology operator="dilate" radius="3"></feMorphology><feComposite in2="SourceAlpha" operator="in"></feComposite></filter><path d="M200 105L218.75 105L62.5 260.1L43.75 260L200 105Z" id="a1HlT2x2Uu" fill="white" fill-opacity="1" filter="url(#shadow2457759)"></path></g></g><g><use xlink:href="#b3TrODoogu" opacity="1" fill="#f3eff3" fill-opacity="1"></use><g><use xlink:href="#b3TrODoogu" opacity="1" fill-opacity="0" stroke="#000000" stroke-width="1" stroke-opacity="0"></use></g><g><filter id="shadow842124" x="74" y="79" width="228" height="215.1" filterUnits="userSpaceOnUse" primitiveUnits="userSpaceOnUse"><feFlood></feFlood><feComposite in2="SourceAlpha" operator="out"></feComposite><feGaussianBlur stdDeviation="2.24"></feGaussianBlur><feOffset dx="1" dy="8" result="afterOffset"></feOffset><feFlood flood-color="#fffcfc" flood-opacity="0.5"></feFlood><feComposite in2="afterOffset" operator="in"></feComposite><feMorphology operator="dilate" radius="3"></feMorphology><feComposite in2="SourceAlpha" operator="in"></feComposite></filter><path d="M256.25 105L275 105L118.75 260.1L100 260L256.25 105Z" id="a3UlA8FZPq" fill="white" fill-opacity="1" filter="url(#shadow842124)"></path></g></g><g><use xlink:href="#e4ll0IUHJz" opacity="1" fill="#f3eff3" fill-opacity="1"></use><g><use xlink:href="#e4ll0IUHJz" opacity="1" fill-opacity="0" stroke="#000000" stroke-width="1" stroke-opacity="0"></use></g><g><filter id="shadow600043" x="104" y="78.9" width="198" height="205" filterUnits="userSpaceOnUse" primitiveUnits="userSpaceOnUse"><feFlood></feFlood><feComposite in2="SourceAlpha" operator="out"></feComposite><feGaussianBlur stdDeviation="2.24"></feGaussianBlur><feOffset dx="1" dy="8" result="afterOffset"></feOffset><feFlood flood-color="#fffcfc" flood-opacity="0.5"></feFlood><feComposite in2="afterOffset" operator="in"></feComposite><feMorphology operator="dilate" radius="3"></feMorphology><feComposite in2="SourceAlpha" operator="in"></feComposite></filter><path d="M256.25 104.9L275 104.9L130 249.9L130 231.15L256.25 104.9Z" id="ad8cXXkB4" fill="white" fill-opacity="1" filter="url(#shadow600043)"></path></g></g><g><use xlink:href="#a4hyDd3xB" opacity="1" fill="#f3eff3" fill-opacity="1"></use><g><use xlink:href="#a4hyDd3xB" opacity="1" fill-opacity="0" stroke="#000000" stroke-width="1" stroke-opacity="0"></use></g><g><filter id="shadow12086626" x="130.25" y="78.9" width="228" height="215.1" filterUnits="userSpaceOnUse" primitiveUnits="userSpaceOnUse"><feFlood></feFlood><feComposite in2="SourceAlpha" operator="out"></feComposite><feGaussianBlur stdDeviation="2.24"></feGaussianBlur><feOffset dx="1" dy="8" result="afterOffset"></feOffset><feFlood flood-color="#fffcfc" flood-opacity="0.5"></feFlood><feComposite in2="afterOffset" operator="in"></feComposite><feMorphology operator="dilate" radius="3"></feMorphology><feComposite in2="SourceAlpha" operator="in"></feComposite></filter><path d="M312.5 104.9L331.25 104.9L175 260L156.25 259.9L312.5 104.9Z" id="d1lXE6m3JD" fill="white" fill-opacity="1" filter="url(#shadow12086626)"></path></g></g><g><use xlink:href="#dfwJgJkHE" opacity="1" fill="#f3eff3" fill-opacity="1"></use><g><use xlink:href="#dfwJgJkHE" opacity="1" fill-opacity="0" stroke="#000000" stroke-width="1" stroke-opacity="0"></use></g><g><filter id="shadow1458238" x="186.5" y="78.9" width="228" height="215.1" filterUnits="userSpaceOnUse" primitiveUnits="userSpaceOnUse"><feFlood></feFlood><feComposite in2="SourceAlpha" operator="out"></feComposite><feGaussianBlur stdDeviation="2.24"></feGaussianBlur><feOffset dx="1" dy="8" result="afterOffset"></feOffset><feFlood flood-color="#fffcfc" flood-opacity="0.5"></feFlood><feComposite in2="afterOffset" operator="in"></feComposite><feMorphology operator="dilate" radius="3"></feMorphology><feComposite in2="SourceAlpha" operator="in"></feComposite></filter><path d="M368.75 104.9L387.5 104.9L231.25 260L212.5 259.9L368.75 104.9Z" id="e22c41lStH" fill="white" fill-opacity="1" filter="url(#shadow1458238)"></path></g></g><g><use xlink:href="#fahNZ65K" opacity="1" fill="#f3eff3" fill-opacity="1"></use><g><use xlink:href="#fahNZ65K" opacity="1" fill-opacity="0" stroke="#000000" stroke-width="1" stroke-opacity="0"></use></g><g><filter id="shadow5779525" x="216.5" y="78.9" width="198" height="205" filterUnits="userSpaceOnUse" primitiveUnits="userSpaceOnUse"><feFlood></feFlood><feComposite in2="SourceAlpha" operator="out"></feComposite><feGaussianBlur stdDeviation="2.24"></feGaussianBlur><feOffset dx="1" dy="8" result="afterOffset"></feOffset><feFlood flood-color="#fffcfc" flood-opacity="0.5"></feFlood><feComposite in2="afterOffset" operator="in"></feComposite><feMorphology operator="dilate" radius="3"></feMorphology><feComposite in2="SourceAlpha" operator="in"></feComposite></filter><path d="M368.75 104.9L387.5 104.9L242.5 249.9L242.5 231.15L368.75 104.9Z" id="a1oT4OOZ5V" fill="white" fill-opacity="1" filter="url(#shadow5779525)"></path></g></g><g><use xlink:href="#a3uxZ6iHj" opacity="1" fill="#f3eff3" fill-opacity="1"></use><g><use xlink:href="#a3uxZ6iHj" opacity="1" fill-opacity="0" stroke="#000000" stroke-width="1" stroke-opacity="0"></use></g><g><filter id="shadow9269198" x="242.75" y="78.9" width="228" height="215.1" filterUnits="userSpaceOnUse" primitiveUnits="userSpaceOnUse"><feFlood></feFlood><feComposite in2="SourceAlpha" operator="out"></feComposite><feGaussianBlur stdDeviation="2.24"></feGaussianBlur><feOffset dx="1" dy="8" result="afterOffset"></feOffset><feFlood flood-color="#fffcfc" flood-opacity="0.5"></feFlood><feComposite in2="afterOffset" operator="in"></feComposite><feMorphology operator="dilate" radius="3"></feMorphology><feComposite in2="SourceAlpha" operator="in"></feComposite></filter><path d="M425 104.9L443.75 104.9L287.5 260L268.75 259.9L425 104.9Z" id="c3VoTAQSRC" fill="white" fill-opacity="1" filter="url(#shadow9269198)"></path></g></g><g><use xlink:href="#g2CIGo0jNa" opacity="1" fill="#f3eff3" fill-opacity="1"></use><g><use xlink:href="#g2CIGo0jNa" opacity="1" fill-opacity="0" stroke="#000000" stroke-width="1" stroke-opacity="0"></use></g><g><filter id="shadow1204972" x="299" y="78.9" width="228" height="215.1" filterUnits="userSpaceOnUse" primitiveUnits="userSpaceOnUse"><feFlood></feFlood><feComposite in2="SourceAlpha" operator="out"></feComposite><feGaussianBlur stdDeviation="2.24"></feGaussianBlur><feOffset dx="1" dy="8" result="afterOffset"></feOffset><feFlood flood-color="#fffcfc" flood-opacity="0.5"></feFlood><feComposite in2="afterOffset" operator="in"></feComposite><feMorphology operator="dilate" radius="3"></feMorphology><feComposite in2="SourceAlpha" operator="in"></feComposite></filter><path d="M481.25 104.9L500 104.9L343.75 260L325 259.9L481.25 104.9Z" id="adC1e9hpN" fill="white" fill-opacity="1" filter="url(#shadow1204972)"></path></g></g><g><use xlink:href="#d54MtCrxe" opacity="1" fill="#f3eff3" fill-opacity="1"></use><g><use xlink:href="#d54MtCrxe" opacity="1" fill-opacity="0" stroke="#000000" stroke-width="1" stroke-opacity="0"></use></g><g><filter id="shadow8422781" x="467.75" y="105.25" width="184.58" height="188.75" filterUnits="userSpaceOnUse" primitiveUnits="userSpaceOnUse"><feFlood></feFlood><feComposite in2="SourceAlpha" operator="out"></feComposite><feGaussianBlur stdDeviation="2.24"></feGaussianBlur><feOffset dx="1" dy="8" result="afterOffset"></feOffset><feFlood flood-color="#fffcfc" flood-opacity="0.5"></feFlood><feComposite in2="afterOffset" operator="in"></feComposite><feMorphology operator="dilate" radius="3"></feMorphology><feComposite in2="SourceAlpha" operator="in"></feComposite></filter><path d="M625.21 131.25L625.33 150L512.5 260L493.75 260L625.21 131.25Z" id="f50KNl7bL8" fill="white" fill-opacity="1" filter="url(#shadow8422781)"></path></g></g><g><use xlink:href="#g1PXRAEE4I" opacity="1" fill="#f3eff3" fill-opacity="1"></use><g><use xlink:href="#g1PXRAEE4I" opacity="1" fill-opacity="0" stroke="#000000" stroke-width="1" stroke-opacity="0"></use></g><g><filter id="shadow3596016" x="354.07" y="78.9" width="228" height="215.1" filterUnits="userSpaceOnUse" primitiveUnits="userSpaceOnUse"><feFlood></feFlood><feComposite in2="SourceAlpha" operator="out"></feComposite><feGaussianBlur stdDeviation="2.24"></feGaussianBlur><feOffset dx="1" dy="8" result="afterOffset"></feOffset><feFlood flood-color="#fffcfc" flood-opacity="0.5"></feFlood><feComposite in2="afterOffset" operator="in"></feComposite><feMorphology operator="dilate" radius="3"></feMorphology><feComposite in2="SourceAlpha" operator="in"></feComposite></filter><path d="M536.32 104.9L555.07 104.9L398.82 260L380.07 259.9L536.32 104.9Z" id="aDgs1c2JL" fill="white" fill-opacity="1" filter="url(#shadow3596016)"></path></g></g><g><use xlink:href="#aCeTntL8x" opacity="1" fill="#f3eff3" fill-opacity="1"></use><g><use xlink:href="#aCeTntL8x" opacity="1" fill-opacity="0" stroke="#000000" stroke-width="1" stroke-opacity="0"></use></g><g><filter id="shadow16016400" x="410.32" y="78.9" width="228" height="215.1" filterUnits="userSpaceOnUse" primitiveUnits="userSpaceOnUse"><feFlood></feFlood><feComposite in2="SourceAlpha" operator="out"></feComposite><feGaussianBlur stdDeviation="2.24"></feGaussianBlur><feOffset dx="1" dy="8" result="afterOffset"></feOffset><feFlood flood-color="#fffcfc" flood-opacity="0.5"></feFlood><feComposite in2="afterOffset" operator="in"></feComposite><feMorphology operator="dilate" radius="3"></feMorphology><feComposite in2="SourceAlpha" operator="in"></feComposite></filter><path d="M592.57 104.9L611.32 104.9L455.07 260L436.32 259.9L592.57 104.9Z" id="a7YH21rBN" fill="white" fill-opacity="1" filter="url(#shadow16016400)"></path></g></g><g><use xlink:href="#c6C3XyEbDI" opacity="1" fill="#f3eff3" fill-opacity="1"></use><g><use xlink:href="#c6C3XyEbDI" opacity="1" fill-opacity="0" stroke="#000000" stroke-width="1" stroke-opacity="0"></use></g><g><filter id="shadow3863838" x="517.75" y="155.25" width="134.25" height="138.75" filterUnits="userSpaceOnUse" primitiveUnits="userSpaceOnUse"><feFlood></feFlood><feComposite in2="SourceAlpha" operator="out"></feComposite><feGaussianBlur stdDeviation="2.24"></feGaussianBlur><feOffset dx="1" dy="8" result="afterOffset"></feOffset><feFlood flood-color="#fffcfc" flood-opacity="0.5"></feFlood><feComposite in2="afterOffset" operator="in"></feComposite><feMorphology operator="dilate" radius="3"></feMorphology><feComposite in2="SourceAlpha" operator="in"></feComposite></filter><path d="M625 181.25L625 200L562.5 260L543.75 260L625 181.25Z" id="d2BcrIYScW" fill="white" fill-opacity="1" filter="url(#shadow3863838)"></path></g></g><g><use xlink:href="#a2H4byUTLa" opacity="1" fill="#f3eff3" fill-opacity="1"></use><g><use xlink:href="#a2H4byUTLa" opacity="1" fill-opacity="0" stroke="#000000" stroke-width="1" stroke-opacity="0"></use></g><g><filter id="shadow6725152" x="568.03" y="199" width="83.97" height="95.07" filterUnits="userSpaceOnUse" primitiveUnits="userSpaceOnUse"><feFlood></feFlood><feComposite in2="SourceAlpha" operator="out"></feComposite><feGaussianBlur stdDeviation="2.24"></feGaussianBlur><feOffset dx="1" dy="8" result="afterOffset"></feOffset><feFlood flood-color="#fffcfc" flood-opacity="0.5"></feFlood><feComposite in2="afterOffset" operator="in"></feComposite><feMorphology operator="dilate" radius="3"></feMorphology><feComposite in2="SourceAlpha" operator="in"></feComposite></filter><path d="M594.03 260.07L608.05 243.55L625 225L625 243.75L618.75 251.5L612.5 260L604.69 260.07L594.03 260.07Z" id="c5tOTqxwJh" fill="white" fill-opacity="1" filter="url(#shadow6725152)"></path></g></g></g></svg>